<svg width="200" height="150" viewBox="0 0 200 150" fill="none" xmlns="http://www.w3.org/2000/svg">
<g clip-path="url(#clip0_1_49)">
<rect width="200" height="150" fill="white"/>
<rect width="200" height="150" fill="#999999"/>
<path opacity="0.34" d="M13.4048 53.0909V88H12.3139V53.0909H13.4048ZM24.3139 53.0909H25.2685L39.5185 86.3636H39.6548L53.9048 53.0909H54.8594V88H53.7685V56.5H53.6321L40.1321 88H39.0412L25.5412 56.5H25.4048V88H24.3139V53.0909ZM63.0241 88H61.8651L74.3423 53.0909H75.8423L88.3196 88H87.1605L75.1605 54.4545H75.0241L63.0241 88ZM66.9787 75.1136H83.206V76.2045H66.9787V75.1136ZM118.439 64C118.234 62.8068 117.814 61.608 117.178 60.4034C116.553 59.1875 115.717 58.0739 114.672 57.0625C113.638 56.0511 112.411 55.2386 110.99 54.625C109.57 54.0114 107.962 53.7045 106.166 53.7045C103.496 53.7045 101.155 54.4091 99.1435 55.8182C97.1435 57.2159 95.5866 59.1818 94.473 61.7159C93.3594 64.2386 92.8026 67.1818 92.8026 70.5455C92.8026 73.8636 93.3537 76.7898 94.456 79.3239C95.5582 81.858 97.1207 83.8352 99.1435 85.2557C101.166 86.6761 103.553 87.3864 106.303 87.3864C108.734 87.3864 110.893 86.8125 112.78 85.6648C114.666 84.5057 116.138 82.8466 117.195 80.6875C118.251 78.517 118.757 75.9091 118.712 72.8636L119.189 73.2727H106.643V72.1818H119.803V73.2727C119.803 76.4545 119.223 79.1818 118.064 81.4545C116.905 83.7159 115.308 85.4545 113.274 86.6705C111.24 87.875 108.916 88.4773 106.303 88.4773C103.348 88.4773 100.774 87.7273 98.581 86.2273C96.3991 84.7159 94.706 82.6136 93.5014 79.9205C92.3082 77.2273 91.7116 74.1023 91.7116 70.5455C91.7116 67.8636 92.0526 65.4261 92.7344 63.233C93.4276 61.0284 94.4105 59.1364 95.6832 57.5568C96.9673 55.9659 98.4957 54.7443 100.268 53.892C102.041 53.0398 104.007 52.6136 106.166 52.6136C108.212 52.6136 110.018 52.9659 111.587 53.6705C113.155 54.375 114.49 55.3011 115.592 56.4489C116.706 57.5852 117.587 58.8182 118.234 60.1477C118.893 61.4659 119.325 62.75 119.53 64H118.439ZM129.126 88V53.0909H147.74V54.1818H130.217V70H146.717V71.0909H130.217V86.9091H148.217V88H129.126ZM157.158 53.0909H158.112L172.362 86.3636H172.499L186.749 53.0909H187.703V88H186.612V56.5H186.476L172.976 88H171.885L158.385 56.5H158.249V88H157.158V53.0909Z" fill="#E1E1E1"/>
</g>
<defs>
<clipPath id="clip0_1_49">
<rect width="200" height="150" fill="white"/>
</clipPath>
</defs>
</svg>
